<?xml version="1.0" encoding="UTF-8" standalone="no"?>
<svg
   xmlns:dc="http://purl.org/dc/elements/1.1/"
   xmlns:cc="http://creativecommons.org/ns#"
   xmlns:rdf="http://www.w3.org/1999/02/22-rdf-syntax-ns#"
   xmlns:svg="http://www.w3.org/2000/svg"
   xmlns="http://www.w3.org/2000/svg"
   version="1.1"
   id="svg2"
   width="136.04254"
   height="172.6702">
  <metadata
     id="metadata138">
    <rdf:RDF>
      <cc:Work
         rdf:about="">
        <dc:format>image/svg+xml</dc:format>
        <dc:type
           rdf:resource="http://purl.org/dc/dcmitype/StillImage" />
        <dc:title></dc:title>
      </cc:Work>
    </rdf:RDF>
  </metadata>
  <defs
     id="defs136" />
  <path
     style="fill:none;stroke:#000000;stroke-width:6"
     id="path38"
     d="m 66.371956,69.063629 0,34.000001" />
  <path
     d="m 64.371956,86.063629 32,-10 0,19 -32,-9 z"
     id="path40"
     style="fill-rule:evenodd;stroke:#000000" />
  <g
     transform="translate(-68.628044,-247.93637)"
     style="fill:none;stroke:#000000;stroke-width:4;stroke-linecap:round;stroke-linejoin:round"
     id="g44">
    <path
       id="path46"
       d="m 198,334 -63,0" />
    <path
       id="path48"
       d="m 122,376 0,-84 m 0,84 -39.4,0 m 92.4,1 0,41 m 0,-41 -40,0 m 40,-85 0,-42 m 0,42 -40,0" />
  </g>
  <path
     d="m 66.371956,112.06363 0,19"
     id="path52"
     style="fill:none;stroke:#000000;stroke-width:6" />
  <path
     d="m 66.371956,42.063629 0,19"
     id="path54"
     style="fill:none;stroke:#000000;stroke-width:6" />
  <g
     transform="translate(-68.628044,-247.93637)"
     style="font-size:28px;font-family:'Bitstream Vera Sans', sans-serif;fill:#555753"
     id="g84"
     font-size="28px">
    <text
       id="text122"
       x="67.055779"
       y="367.94351">
      <tspan
         id="tspan124"
         x="67.055779"
         y="367.94351">G</tspan>
    </text>
    <text
       id="text126"
       x="184.76433"
       y="268.34848">
      <tspan
         id="tspan128"
         x="184.76433"
         y="268.34848">D</tspan>
    </text>
    <text
       id="text130"
       x="183.44951"
       y="420.21008">
      <tspan
         id="tspan132"
         x="183.44951"
         y="420.21008">S</tspan>
    </text>
  </g>
</svg>
